<?xml version="1.0" encoding="utf-8"?>
<svg xmlns="http://www.w3.org/2000/svg" viewBox="0 0 500 500">
  <g id="Layer_1" transform="matrix(1, 0, 0, 1, 35.248039, 5.657093)">
    <rect class="st2" x="52.001" y="194.37" width="331.593" height="119.093" style="fill: rgb(26, 45, 69); stroke-width: 0.174;"/>
    <g transform="matrix(0.173839, 0, 0, 0.173839, -33.012794, 106.371994)">
      <g>
        <g>
          <path class="st0" d="M767.78,726.04c-1.88-1.06-4.05-1.32-6.13-.75-2.08.58-3.81,1.93-4.87,3.81-.76,1.34-75.98,134.97-114.85,245.61-.71,2.04-.6,4.23.34,6.17.93,1.94,2.57,3.41,4.6,4.12.86.3,1.77.46,2.68.46,3.42,0,6.48-2.17,7.62-5.4,38.4-109.28,112.93-241.69,113.68-243.02,1.06-1.88,1.33-4.06.75-6.13-.58-2.08-1.93-3.81-3.81-4.87Z" style="fill: rgb(66, 198, 204);"/>
          <path class="st0" d="M744.44,1014.98l-8.28,4c-31.66,12.57-64.02,18.85-98.93,19.19h-1.27c-49.98,0-60.38-29.4-60.79-30.63-1.35-4.22-5.89-6.57-10.11-5.23-4.24,1.34-6.61,5.88-5.27,10.13.54,1.71,13.9,41.89,76.16,41.89h1.44c38.21-.38,73.55-7.45,108.02-21.63l10.13-4.17-11.1-13.55Z" style="fill: rgb(66, 198, 204);"/>
          <path class="st1" d="M1000.25,955.14c-1.52-1.49-3.52-2.3-5.64-2.3-.03,0-.06,0-.09,0-2.16.02-4.17.89-5.68,2.43-4.11,4.2-8.64,8.74-13.84,13.87-23.01,22.69-46.8,46.14-76.22,59.83-33.12,15.41-67.33,18.95-96.33,9.96-60.38-18.7-61.33-74.99-58.94-98.33,4.61-44.96,53.9-110.42,95.25-141.05,10.8-8,21.35-15.27,31.42-21.66-2.87-4.47-4.73-9.57-7.46-14.38-10.77,6.78-22.05,14.52-33.58,23.06-44.06,32.63-96.66,103.24-101.7,152.38-5.83,56.84,20.43,99.98,70.23,115.4,11.96,3.7,24.75,5.58,38.02,5.58,22.77,0,46.94-5.65,69.9-16.33,31.95-14.87,56.8-39.36,80.83-63.05,5.21-5.14,9.78-9.72,13.96-14,1.51-1.54,2.33-3.58,2.3-5.73s-.89-4.17-2.43-5.68Z" style="fill: rgb(255, 255, 255);"/>
          <path class="st1" d="M892.93,764.37l9-4.56c20.13-10,38.33-15.97,54.09-17.72,27.89-3.1,34.6,2.9,34.6,2.9,0,0,0,0,0,0l1.47-1.33.74,1.23,12.12-7.27-1.04-1.73c-2.6-4.33-12.66-13.96-49.68-9.85-17.76,1.98-38.02,8.6-60.21,19.7l-8.06,4.03,6.96,14.6ZM993.6,742.25s0,0,0,0h0s0,0,0,0ZM993.24,742.63l.37-.34s.05.09.08.17l-.45.17Z" style="fill: rgb(255, 255, 255);"/>
          <path class="st0" d="M906.73,807.47c-1.64-32.94-22.27-68.36-56.61-97.19-34.2-28.72-77.38-46.84-118.46-49.72-48.37-3.4-89.29,11.4-115.1,24.4-34.62,17.44-56.6,38.52-65.62,52.42-11.91,18.34-15.02,34.5-9,46.7,3.82,7.76,13.23,17.39,36.35,19.23,4.46.37,8.34-2.97,8.69-7.41.35-4.44-2.97-8.34-7.41-8.69-8.59-.68-19.57-3.02-23.14-10.27-3.31-6.72-.45-17.65,8.06-30.77,17.01-26.21,85.27-75.15,166.05-69.51,77.75,5.45,157.04,70.64,160.07,131.61,1.03,20.71.21,37.8-2.58,53.77l-.11.62c-.15.84-.29,1.68-.46,2.53l-.06.34c-.33,1.67-.68,3.35-1.07,5.08l-.06.24c-.39,1.7-.8,3.39-1.24,5.07l-.07.26c-.46,1.75-.95,3.48-1.45,5.15l-.06.19c-.53,1.78-1.1,3.54-1.71,5.35-.61,1.81-1.26,3.61-1.92,5.35-11.59,30.5-32.37,56.82-63.53,80.46-15.66,11.88-31.46,22.17-47.02,30.67,4.3,3.7,8.45,7.56,12.54,11.49,14.71-8.35,29.57-18.17,44.24-29.3,32.67-24.79,54.76-52.27,67.51-84.01.9-2.25,1.82-4.71,2.79-7.5l.15-.44c.54-1.55,1.05-3.11,1.57-4.74,2.63-8.35,4.7-17.15,6.16-26.16l.37-2.34h-.01c2.42-16.05,3.12-33.38,2.15-52.9Z" style="fill: rgb(66, 198, 204);"/>
        </g>
        <rect class="st0" x="1165.09" y="697.32" width="11.58" height="336.12" rx="5.79" ry="5.79" style="fill: rgb(66, 198, 204);"/>
      </g>
      <g>
        <g>
          <path class="st0" d="M1323.55,960.59c0-21.01,16.13-36.04,37.84-36.04,12.05,0,22.1,4.38,28.67,12.35l-10.36,9.56c-4.68-5.38-10.55-8.16-17.52-8.16-13.04,0-22.3,9.16-22.3,22.3s9.26,22.3,22.3,22.3c6.97,0,12.84-2.79,17.52-8.26l10.36,9.56c-6.57,8.07-16.63,12.45-28.77,12.45-21.61,0-37.74-15.04-37.74-36.04Z" style="fill: rgb(66, 198, 204);"/>
          <path class="st0" d="M1429.67,960.59c0-20.71,16.13-36.04,38.13-36.04s38.13,15.23,38.13,36.04-16.23,36.04-38.13,36.04-38.13-15.33-38.13-36.04ZM1489.61,960.59c0-13.24-9.36-22.3-21.8-22.3s-21.81,9.06-21.81,22.3,9.36,22.3,21.81,22.3,21.8-9.06,21.8-22.3Z" style="fill: rgb(66, 198, 204);"/>
          <path class="st0" d="M1616.65,925.74v69.7h-13.24l-34.75-42.31v42.31h-15.93v-69.7h13.34l34.65,42.31v-42.31h15.93Z" style="fill: rgb(66, 198, 204);"/>
          <path class="st0" d="M1662.33,988.57l5.48-12.15c5.87,4.28,14.64,7.27,23,7.27,9.56,0,13.44-3.19,13.44-7.47,0-13.04-40.52-4.08-40.52-29.97,0-11.85,9.56-21.71,29.37-21.71,8.76,0,17.72,2.09,24.19,6.17l-4.98,12.25c-6.47-3.68-13.14-5.48-19.32-5.48-9.56,0-13.24,3.59-13.24,7.97,0,12.84,40.52,3.98,40.52,29.57,0,11.65-9.66,21.61-29.57,21.61-11.05,0-22.2-3.29-28.38-8.07Z" style="fill: rgb(66, 198, 204);"/>
          <path class="st0" d="M1765.37,964.77v-39.03h16.13v38.43c0,13.24,5.77,18.72,15.53,18.72s15.53-5.47,15.53-18.72v-38.43h15.93v39.03c0,20.51-11.75,31.86-31.56,31.86s-31.56-11.35-31.56-31.86Z" style="fill: rgb(66, 198, 204);"/>
          <path class="st0" d="M1879.06,925.74h16.13v56.55h34.95v13.14h-51.08v-69.7Z" style="fill: rgb(66, 198, 204);"/>
          <path class="st0" d="M1981.8,938.88h-22.3v-13.14h60.74v13.14h-22.3v56.55h-16.13v-56.55Z" style="fill: rgb(66, 198, 204);"/>
          <path class="st0" d="M2063.54,925.74h16.13v69.7h-16.13v-69.7Z" style="fill: rgb(66, 198, 204);"/>
          <path class="st0" d="M2194.76,925.74v69.7h-13.24l-34.75-42.31v42.31h-15.93v-69.7h13.34l34.65,42.31v-42.31h15.93Z" style="fill: rgb(66, 198, 204);"/>
          <path class="st0" d="M2293.01,959.49h14.74v28.28c-7.67,5.77-18.22,8.86-28.18,8.86-21.9,0-38.03-15.04-38.03-36.04s16.13-36.04,38.33-36.04c12.25,0,22.4,4.18,29.17,12.05l-10.35,9.56c-5.08-5.38-10.95-7.87-18.02-7.87-13.54,0-22.8,9.06-22.8,22.3s9.26,22.3,22.6,22.3c4.38,0,8.46-.8,12.55-2.99v-20.41Z" style="fill: rgb(66, 198, 204);"/>
        </g>
        <g>
          <path class="st1" d="M1426.72,735.63c13.12,6.76,23.27,16.39,30.42,28.89,7.15,12.5,10.73,27,10.73,43.51s-3.58,30.93-10.73,43.27c-7.16,12.34-17.3,21.9-30.42,28.65-13.13,6.76-28.34,10.14-45.63,10.14h-57.54v-164.6h57.54c17.29,0,32.5,3.38,45.63,10.14ZM1420,847.88c9.43-9.43,14.15-22.72,14.15-39.85s-4.72-30.54-14.15-40.21c-9.43-9.67-22.8-14.5-40.09-14.5h-23.35v108.71h23.35c17.29,0,30.66-4.72,40.09-14.15Z" style="fill: rgb(255, 255, 255);"/>
          <path class="st1" d="M1495.58,764.05c7.31-12.81,17.29-22.79,29.95-29.95,12.65-7.15,26.84-10.73,42.57-10.73,18.39,0,34.51,4.72,48.34,14.15,13.83,9.43,23.5,22.48,29.01,39.15h-37.97c-3.77-7.86-9.08-13.76-15.92-17.69-6.84-3.93-14.74-5.9-23.7-5.9-9.59,0-18.12,2.24-25.59,6.72-7.47,4.48-13.29,10.81-17.45,18.98-4.17,8.18-6.25,17.77-6.25,28.77s2.08,20.4,6.25,28.65c4.16,8.25,9.98,14.62,17.45,19.1,7.47,4.48,16,6.72,25.59,6.72,8.96,0,16.86-2,23.7-6.01,6.84-4.01,12.14-9.94,15.92-17.8h37.97c-5.5,16.82-15.13,29.91-28.89,39.26-13.76,9.36-29.91,14.03-48.46,14.03-15.72,0-29.91-3.57-42.57-10.73-12.66-7.15-22.64-17.1-29.95-29.83-7.31-12.73-10.97-27.2-10.97-43.39s3.66-30.69,10.97-43.51Z" style="fill: rgb(255, 255, 255);"/>
          <path class="st1" d="M1841.88,725.49v26.65h-43.86v137.96h-33.01v-137.96h-43.86v-26.65h120.74Z" style="fill: rgb(255, 255, 255);"/>
          <path class="st1" d="M1898.95,752.14v41.27h55.42v26.18h-55.42v43.63h62.49v26.88h-95.51v-164.84h95.51v26.88h-62.49Z" style="fill: rgb(255, 255, 255);"/>
          <path class="st1" d="M1994.34,764.05c7.31-12.81,17.29-22.79,29.95-29.95,12.65-7.15,26.84-10.73,42.57-10.73,18.39,0,34.51,4.72,48.34,14.15,13.83,9.43,23.5,22.48,29.01,39.15h-37.97c-3.77-7.86-9.08-13.76-15.92-17.69-6.84-3.93-14.74-5.9-23.7-5.9-9.59,0-18.12,2.24-25.59,6.72-7.47,4.48-13.29,10.81-17.45,18.98-4.17,8.18-6.25,17.77-6.25,28.77s2.08,20.4,6.25,28.65c4.16,8.25,9.98,14.62,17.45,19.1,7.47,4.48,16,6.72,25.59,6.72,8.96,0,16.86-2,23.7-6.01,6.84-4.01,12.14-9.94,15.92-17.8h37.97c-5.5,16.82-15.13,29.91-28.89,39.26-13.76,9.36-29.91,14.03-48.46,14.03-15.72,0-29.91-3.57-42.57-10.73-12.66-7.15-22.64-17.1-29.95-29.83-7.31-12.73-10.97-27.2-10.97-43.39s3.66-30.69,10.97-43.51Z" style="fill: rgb(255, 255, 255);"/>
          <path class="st1" d="M2309.04,725.49v164.6h-33.01v-70.04h-70.51v70.04h-33.02v-164.6h33.02v67.68h70.51v-67.68h33.01Z" style="fill: rgb(255, 255, 255);"/>
        </g>
      </g>
    </g>
  </g>
</svg>
